<?xml version="1.0" encoding="UTF-8"?>
<svg version="1.1" xmlns="http://www.w3.org/2000/svg" width="636" height="624">
<path d="M0 0 C1.98486578 -0.00433555 3.96972777 -0.01085745 5.95458007 -0.01936007 C11.3765617 -0.03627386 16.79807818 -0.02222461 22.22003508 -0.00284529 C28.07962999 0.01263186 33.93916976 -0.00083297 39.79876709 -0.0105896 C51.26383736 -0.0250921 62.72873012 -0.01290699 74.19378355 0.00852364 C83.51164348 0.0252998 92.82945497 0.03170038 102.14733124 0.03025818 C103.14188052 0.03012066 103.14188052 0.03012066 104.1565217 0.02998037 C106.8482256 0.02958719 109.53992948 0.02913756 112.23163336 0.02860898 C137.45592488 0.02374321 162.68012318 0.04636605 187.90438573 0.08256521 C210.3021415 0.11457085 232.69981771 0.12660589 255.09759521 0.1204834 C256.53640907 0.12009655 257.97522293 0.1197101 259.41403678 0.11932403 C260.48103521 0.11903701 260.48103521 0.11903701 261.56958916 0.11874419 C265.15054035 0.11778981 268.73149156 0.11687545 272.31244278 0.11600494 C273.01895214 0.11583115 273.7254615 0.11565736 274.45338023 0.1154783 C293.18684271 0.11112155 311.92029663 0.12114045 330.65375304 0.1358428 C331.65353715 0.13662301 331.65353715 0.13662301 332.67351891 0.13741899 C333.33880617 0.13793833 334.00409343 0.13845768 334.68954091 0.13899276 C335.35358997 0.1395105 336.01763904 0.14002824 336.7018108 0.14056167 C338.03909799 0.14160975 339.37638517 0.14266996 340.71367233 0.14374239 C350.68833458 0.15163945 360.66297793 0.15299495 370.63764191 0.15144348 C381.97870715 0.15000354 393.31970099 0.15969944 404.66074255 0.18338984 C410.44626927 0.19524562 416.23169651 0.20237765 422.0172348 0.19655228 C427.31442545 0.19137618 432.61140601 0.20008397 437.90856072 0.21982688 C439.82351032 0.22456189 441.73848041 0.22427274 443.65342692 0.21841651 C462.05365444 0.16758787 462.05365444 0.16758787 470.16107178 3.62145996 C470.16107178 4.28145996 470.16107178 4.94145996 470.16107178 5.62145996 C470.90357178 5.76583496 471.64607178 5.91020996 472.41107178 6.05895996 C474.68134917 6.52333488 476.91866657 7.04009565 479.16107178 7.62145996 C479.16107178 8.28145996 479.16107178 8.94145996 479.16107178 9.62145996 C480.05825928 9.83802246 480.05825928 9.83802246 480.97357178 10.05895996 C482.72257582 10.50870386 484.44784201 11.05038337 486.16107178 11.62145996 C486.16107178 12.28145996 486.16107178 12.94145996 486.16107178 13.62145996 C487.15107178 13.62145996 488.14107178 13.62145996 489.16107178 13.62145996 C489.16107178 14.28145996 489.16107178 14.94145996 489.16107178 15.62145996 C490.15107178 15.62145996 491.14107178 15.62145996 492.16107178 15.62145996 C492.16107178 16.28145996 492.16107178 16.94145996 492.16107178 17.62145996 C492.92419678 17.91020996 493.68732178 18.19895996 494.47357178 18.49645996 C497.16107178 19.62145996 497.16107178 19.62145996 500.16107178 21.62145996 C500.16107178 22.28145996 500.16107178 22.94145996 500.16107178 23.62145996 C500.82107178 23.62145996 501.48107178 23.62145996 502.16107178 23.62145996 C502.16107178 24.28145996 502.16107178 24.94145996 502.16107178 25.62145996 C502.82107178 25.62145996 503.48107178 25.62145996 504.16107178 25.62145996 C504.16107178 26.28145996 504.16107178 26.94145996 504.16107178 27.62145996 C504.82107178 27.62145996 505.48107178 27.62145996 506.16107178 27.62145996 C506.16107178 28.28145996 506.16107178 28.94145996 506.16107178 29.62145996 C506.82107178 29.62145996 507.48107178 29.62145996 508.16107178 29.62145996 C508.16107178 30.28145996 508.16107178 30.94145996 508.16107178 31.62145996 C508.82107178 31.62145996 509.48107178 31.62145996 510.16107178 31.62145996 C510.16107178 32.28145996 510.16107178 32.94145996 510.16107178 33.62145996 C510.82107178 33.62145996 511.48107178 33.62145996 512.16107178 33.62145996 C512.16107178 34.28145996 512.16107178 34.94145996 512.16107178 35.62145996 C512.82107178 35.62145996 513.48107178 35.62145996 514.16107178 35.62145996 C516.16107178 38.62145996 516.16107178 38.62145996 516.16107178 41.62145996 C516.82107178 41.62145996 517.48107178 41.62145996 518.16107178 41.62145996 C518.16107178 42.28145996 518.16107178 42.94145996 518.16107178 43.62145996 C518.82107178 43.62145996 519.48107178 43.62145996 520.16107178 43.62145996 C520.16107178 44.94145996 520.16107178 46.26145996 520.16107178 47.62145996 C520.82107178 47.62145996 521.48107178 47.62145996 522.16107178 47.62145996 C528.16107178 57.82145996 528.16107178 57.82145996 528.16107178 63.62145996 C528.82107178 63.62145996 529.48107178 63.62145996 530.16107178 63.62145996 C530.16107178 65.60145996 530.16107178 67.58145996 530.16107178 69.62145996 C530.82107178 69.62145996 531.48107178 69.62145996 532.16107178 69.62145996 C532.16107178 71.60145996 532.16107178 73.58145996 532.16107178 75.62145996 C532.82107178 75.62145996 533.48107178 75.62145996 534.16107178 75.62145996 C534.22165771 76.32013184 534.28224365 77.01880371 534.34466553 77.73864746 C534.42845459 78.64872559 534.51224365 79.55880371 534.59857178 80.49645996 C534.67978271 81.40138184 534.76099365 82.30630371 534.84466553 83.23864746 C535.03096462 85.63256857 535.03096462 85.63256857 536.16107178 87.62145996 C536.25846348 90.07445515 536.29486185 92.49900156 536.28691292 94.95225525 C536.28836636 95.7204854 536.2898198 96.48871555 536.29131728 97.2802254 C536.29499717 99.88153848 536.2914817 102.48279369 536.28805542 105.08410645 C536.28920645 106.95706685 536.29079386 108.83002702 536.29278266 110.70298672 C536.29697843 115.87092738 536.29488418 121.0388497 536.29179645 126.20679045 C536.28954357 131.77194566 536.2930214 137.33709762 536.29577637 142.9022522 C536.30023426 153.8127604 536.29925751 164.72326175 536.29636373 175.63377023 C536.29410977 184.49717023 536.29379714 193.3605683 536.29488754 202.22396851 C536.29511739 204.11271687 536.29511739 204.11271687 536.29535189 206.03962177 C536.29567159 208.59720524 536.29599581 211.15478871 536.29632448 213.71237218 C536.29909786 237.0369952 536.29621668 260.3616142 536.29098188 283.68623637 C536.28623601 304.99439884 536.28666063 326.30255535 536.29144287 347.61071777 C536.29679352 371.53170001 536.29890463 395.45267895 536.29583061 419.37366199 C536.29551204 421.9220918 536.29519767 424.47052161 536.29488754 427.01895142 C536.29473327 428.27298608 536.29457899 429.52702074 536.29442004 430.81905645 C536.29355487 439.67676558 536.29501777 448.5344726 536.2973671 457.3921814 C536.30016522 468.17964658 536.29942657 478.96710447 536.29408635 489.75456882 C536.29144951 495.26355945 536.290444 500.77253792 536.2937355 506.28152847 C536.2966988 511.31717938 536.29510507 516.35280676 536.28975795 521.38845551 C536.28863391 523.21749032 536.28922466 525.04652708 536.29163374 526.87556064 C536.29464149 529.34729089 536.29158926 531.81893884 536.28691292 534.29066467 C536.28925408 535.01321178 536.29159525 535.73575889 536.29400736 536.48020136 C536.27522215 541.39315921 536.27522215 541.39315921 535.16107178 543.62145996 C534.93485097 545.32509818 534.75218705 547.03474697 534.59857178 548.74645996 C534.51478271 549.65653809 534.43099365 550.56661621 534.34466553 551.50427246 C534.28407959 552.20294434 534.22349365 552.90161621 534.16107178 553.62145996 C533.50107178 553.62145996 532.84107178 553.62145996 532.16107178 553.62145996 C532.16107178 555.60145996 532.16107178 557.58145996 532.16107178 559.62145996 C531.50107178 559.62145996 530.84107178 559.62145996 530.16107178 559.62145996 C530.16107178 561.60145996 530.16107178 563.58145996 530.16107178 565.62145996 C529.50107178 565.62145996 528.84107178 565.62145996 528.16107178 565.62145996 C528.16107178 566.94145996 528.16107178 568.26145996 528.16107178 569.62145996 C527.50107178 569.62145996 526.84107178 569.62145996 526.16107178 569.62145996 C526.01669678 570.38458496 525.87232178 571.14770996 525.72357178 571.93395996 C525.16107178 574.62145996 525.16107178 574.62145996 524.16107178 577.62145996 C523.50107178 577.62145996 522.84107178 577.62145996 522.16107178 577.62145996 C522.16107178 578.94145996 522.16107178 580.26145996 522.16107178 581.62145996 C521.50107178 581.62145996 520.84107178 581.62145996 520.16107178 581.62145996 C520.01669678 582.24020996 519.87232178 582.85895996 519.72357178 583.49645996 C519.16107178 585.62145996 519.16107178 585.62145996 518.16107178 587.62145996 C517.50107178 587.62145996 516.84107178 587.62145996 516.16107178 587.62145996 C515.50107178 589.60145996 514.84107178 591.58145996 514.16107178 593.62145996 C513.50107178 593.62145996 512.84107178 593.62145996 512.16107178 593.62145996 C512.16107178 594.28145996 512.16107178 594.94145996 512.16107178 595.62145996 C511.50107178 595.62145996 510.84107178 595.62145996 510.16107178 595.62145996 C510.16107178 596.28145996 510.16107178 596.94145996 510.16107178 597.62145996 C509.50107178 597.62145996 508.84107178 597.62145996 508.16107178 597.62145996 C508.16107178 598.28145996 508.16107178 598.94145996 508.16107178 599.62145996 C507.50107178 599.62145996 506.84107178 599.62145996 506.16107178 599.62145996 C506.16107178 600.28145996 506.16107178 600.94145996 506.16107178 601.62145996 C505.50107178 601.62145996 504.84107178 601.62145996 504.16107178 601.62145996 C504.16107178 602.28145996 504.16107178 602.94145996 504.16107178 603.62145996 C503.50107178 603.62145996 502.84107178 603.62145996 502.16107178 603.62145996 C502.16107178 604.28145996 502.16107178 604.94145996 502.16107178 605.62145996 C501.50107178 605.62145996 500.84107178 605.62145996 500.16107178 605.62145996 C500.16107178 606.28145996 500.16107178 606.94145996 500.16107178 607.62145996 C499.17107178 607.62145996 498.18107178 607.62145996 497.16107178 607.62145996 C497.16107178 608.28145996 497.16107178 608.94145996 497.16107178 609.62145996 C496.17107178 609.62145996 495.18107178 609.62145996 494.16107178 609.62145996 C494.16107178 610.28145996 494.16107178 610.94145996 494.16107178 611.62145996 C493.50107178 611.62145996 492.84107178 611.62145996 492.16107178 611.62145996 C492.16107178 612.28145996 492.16107178 612.94145996 492.16107178 613.62145996 C491.17107178 613.62145996 490.18107178 613.62145996 489.16107178 613.62145996 C489.16107178 614.28145996 489.16107178 614.94145996 489.16107178 615.62145996 C486.51368261 617.08208846 485.26658843 617.62145996 482.16107178 617.62145996 C482.16107178 618.28145996 482.16107178 618.94145996 482.16107178 619.62145996 C480.84107178 619.62145996 479.52107178 619.62145996 478.16107178 619.62145996 C478.16107178 620.28145996 478.16107178 620.94145996 478.16107178 621.62145996 C476.84107178 621.62145996 475.52107178 621.62145996 474.16107178 621.62145996 C474.16107178 622.28145996 474.16107178 622.94145996 474.16107178 623.62145996 C470.05671934 624.76344913 466.10429341 624.75983711 461.87136841 624.7473011 C461.02376457 624.74875454 460.17616074 624.75020798 459.30287194 624.75170547 C456.44357572 624.75537436 453.58433251 624.75187491 450.72503662 624.7484436 C448.66203471 624.74959507 446.599033 624.75118276 444.53603172 624.75317085 C438.85199914 624.75736066 433.16798327 624.75527503 427.48395061 624.75218463 C421.35982332 624.74992935 415.23569898 624.75341079 409.11157227 624.75616455 C397.8028132 624.76036212 386.49406098 624.75998723 375.18530208 624.75725308 C364.73897197 624.75473978 354.29264382 624.75407977 343.84631348 624.75527573 C342.80783658 624.7553903 342.80783658 624.7553903 341.74838035 624.7555072 C338.93819691 624.75581852 336.12801348 624.75613692 333.31783005 624.75646696 C306.94391684 624.75952753 280.57000704 624.75675002 254.19609436 624.75137006 C230.75277772 624.74662429 207.3094665 624.74704891 183.8661499 624.75183105 C157.54117309 624.75718305 131.21619928 624.75931049 104.891222 624.75621879 C102.08609136 624.75589806 99.28096072 624.75558522 96.47583008 624.75527573 C95.43975076 624.75515711 95.43975076 624.75515711 94.38274054 624.7550361 C83.94172366 624.75389753 73.50070896 624.75523093 63.05969238 624.75775528 C51.19050233 624.76061057 39.32131869 624.75981162 27.45212889 624.75447454 C21.39200444 624.7518397 15.33189104 624.75082881 9.27176666 624.75412369 C3.73030943 624.75709108 -1.81112646 624.75548635 -7.35258174 624.75014614 C-9.36328699 624.74902386 -11.37399403 624.74960897 -13.38469815 624.75202192 C-16.10623312 624.75503879 -18.82769384 624.75196789 -21.54922485 624.7473011 C-22.73500677 624.75081285 -22.73500677 624.75081285 -23.94474387 624.75439554 C-27.41648005 624.74240178 -30.4987931 624.5508144 -33.83892822 623.62145996 C-33.83892822 622.96145996 -33.83892822 622.30145996 -33.83892822 621.62145996 C-35.48892822 621.62145996 -37.13892822 621.62145996 -38.83892822 621.62145996 C-38.83892822 620.96145996 -38.83892822 620.30145996 -38.83892822 619.62145996 C-39.43705322 619.47708496 -40.03517822 619.33270996 -40.65142822 619.18395996 C-42.40043227 618.73421606 -44.12569845 618.19253655 -45.83892822 617.62145996 C-45.83892822 616.96145996 -45.83892822 616.30145996 -45.83892822 615.62145996 C-46.82892822 615.62145996 -47.81892822 615.62145996 -48.83892822 615.62145996 C-48.83892822 614.96145996 -48.83892822 614.30145996 -48.83892822 613.62145996 C-49.82892822 613.62145996 -50.81892822 613.62145996 -51.83892822 613.62145996 C-51.83892822 612.96145996 -51.83892822 612.30145996 -51.83892822 611.62145996 C-52.60205322 611.33270996 -53.36517822 611.04395996 -54.15142822 610.74645996 C-56.83892822 609.62145996 -56.83892822 609.62145996 -59.83892822 607.62145996 C-59.83892822 606.96145996 -59.83892822 606.30145996 -59.83892822 605.62145996 C-60.49892822 605.62145996 -61.15892822 605.62145996 -61.83892822 605.62145996 C-61.83892822 604.96145996 -61.83892822 604.30145996 -61.83892822 603.62145996 C-62.49892822 603.62145996 -63.15892822 603.62145996 -63.83892822 603.62145996 C-63.83892822 602.96145996 -63.83892822 602.30145996 -63.83892822 601.62145996 C-64.49892822 601.62145996 -65.15892822 601.62145996 -65.83892822 601.62145996 C-65.83892822 600.96145996 -65.83892822 600.30145996 -65.83892822 599.62145996 C-66.49892822 599.62145996 -67.15892822 599.62145996 -67.83892822 599.62145996 C-67.83892822 598.96145996 -67.83892822 598.30145996 -67.83892822 597.62145996 C-68.49892822 597.62145996 -69.15892822 597.62145996 -69.83892822 597.62145996 C-69.83892822 596.96145996 -69.83892822 596.30145996 -69.83892822 595.62145996 C-70.49892822 595.62145996 -71.15892822 595.62145996 -71.83892822 595.62145996 C-71.83892822 594.96145996 -71.83892822 594.30145996 -71.83892822 593.62145996 C-72.49892822 593.62145996 -73.15892822 593.62145996 -73.83892822 593.62145996 C-74.82892822 590.65145996 -74.82892822 590.65145996 -75.83892822 587.62145996 C-76.49892822 587.62145996 -77.15892822 587.62145996 -77.83892822 587.62145996 C-77.83892822 586.96145996 -77.83892822 586.30145996 -77.83892822 585.62145996 C-78.49892822 585.62145996 -79.15892822 585.62145996 -79.83892822 585.62145996 C-79.83892822 584.30145996 -79.83892822 582.98145996 -79.83892822 581.62145996 C-80.49892822 581.62145996 -81.15892822 581.62145996 -81.83892822 581.62145996 C-82.84877552 579.70996329 -83.84647317 577.79204427 -84.83892822 575.87145996 C-85.39580322 574.80411621 -85.95267822 573.73677246 -86.52642822 572.63708496 C-87.83892822 569.62145996 -87.83892822 569.62145996 -87.83892822 565.62145996 C-88.49892822 565.62145996 -89.15892822 565.62145996 -89.83892822 565.62145996 C-91.43030907 561.44408522 -92.0517088 558.08985212 -91.83892822 553.62145996 C-92.49892822 553.62145996 -93.15892822 553.62145996 -93.83892822 553.62145996 C-93.89951416 552.91118652 -93.9601001 552.20091309 -94.02252197 551.46911621 C-94.10631104 550.55001465 -94.1901001 549.63091309 -94.27642822 548.68395996 C-94.39824463 547.3091748 -94.39824463 547.3091748 -94.52252197 545.90661621 C-94.59937798 543.65986264 -94.59937798 543.65986264 -95.83892822 542.62145996 C-95.93861436 540.20434701 -95.9725574 537.81576829 -95.96476936 535.39809513 C-95.9662228 534.62933045 -95.96767624 533.86056578 -95.96917373 533.0685052 C-95.97286038 530.45935225 -95.96933507 527.85025677 -95.96591187 525.24110413 C-95.96706264 523.36488198 -95.96864986 521.48866006 -95.97063911 519.61243862 C-95.97483854 514.43083706 -95.97273899 509.24925376 -95.96965289 504.06765211 C-95.96740147 498.48952759 -95.97087712 492.91140635 -95.97363281 487.33328247 C-95.97809238 476.39523158 -95.97711319 465.45718754 -95.97422017 454.51913638 C-95.97196675 445.63330589 -95.97165335 436.74747734 -95.97274399 427.86164665 C-95.97289722 426.59957022 -95.97305045 425.3374938 -95.97320833 424.03717263 C-95.97352804 421.47371062 -95.97385225 418.91024862 -95.97418092 416.34678661 C-95.9769548 392.96435261 -95.97407237 369.58192301 -95.96883832 346.19948986 C-95.96409298 324.83778453 -95.96451653 303.47608516 -95.96929932 282.11437988 C-95.97464999 258.13590602 -95.97676102 234.15743589 -95.97368705 210.17896122 C-95.97336849 207.62433716 -95.97305412 205.0697131 -95.97274399 202.51508904 C-95.97258971 201.25799528 -95.97243544 200.00090152 -95.97227649 198.70571401 C-95.97141128 189.8259751 -95.9728743 180.94623829 -95.97522354 172.06649971 C-95.97802171 161.25156194 -95.97728293 150.43663144 -95.9719428 139.62169451 C-95.96930593 134.09853398 -95.96830046 128.57538557 -95.97159195 123.05222511 C-95.97455525 118.00358137 -95.97296152 112.95496108 -95.9676144 107.90631949 C-95.96649035 106.07254419 -95.96708112 104.23876695 -95.96949019 102.40499289 C-95.97249791 99.92685507 -95.96944573 97.44879934 -95.96476936 94.97066593 C-95.96711053 94.24622863 -95.9694517 93.52179133 -95.97186381 92.77540138 C-95.95307858 87.84976068 -95.95307858 87.84976068 -94.83892822 85.62145996 C-94.68572441 84.22844012 -94.56497196 82.83173171 -94.46392822 81.43395996 C-94.02782709 77.04481307 -92.66266155 73.64887106 -90.83892822 69.62145996 C-90.4412856 67.63324683 -90.08437656 65.63413634 -89.83892822 63.62145996 C-89.17892822 63.62145996 -88.51892822 63.62145996 -87.83892822 63.62145996 C-87.83892822 62.30145996 -87.83892822 60.98145996 -87.83892822 59.62145996 C-87.17892822 59.62145996 -86.51892822 59.62145996 -85.83892822 59.62145996 C-85.88017822 58.85833496 -85.92142822 58.09520996 -85.96392822 57.30895996 C-85.83892822 54.62145996 -85.83892822 54.62145996 -83.83892822 51.62145996 C-83.17892822 51.62145996 -82.51892822 51.62145996 -81.83892822 51.62145996 C-81.83892822 50.30145996 -81.83892822 48.98145996 -81.83892822 47.62145996 C-81.17892822 47.62145996 -80.51892822 47.62145996 -79.83892822 47.62145996 C-79.83892822 46.30145996 -79.83892822 44.98145996 -79.83892822 43.62145996 C-79.17892822 43.62145996 -78.51892822 43.62145996 -77.83892822 43.62145996 C-77.83892822 42.96145996 -77.83892822 42.30145996 -77.83892822 41.62145996 C-77.17892822 41.62145996 -76.51892822 41.62145996 -75.83892822 41.62145996 C-75.83892822 40.96145996 -75.83892822 40.30145996 -75.83892822 39.62145996 C-75.17892822 39.62145996 -74.51892822 39.62145996 -73.83892822 39.62145996 C-73.83892822 38.30145996 -73.83892822 36.98145996 -73.83892822 35.62145996 C-73.17892822 35.62145996 -72.51892822 35.62145996 -71.83892822 35.62145996 C-71.83892822 34.96145996 -71.83892822 34.30145996 -71.83892822 33.62145996 C-71.17892822 33.62145996 -70.51892822 33.62145996 -69.83892822 33.62145996 C-69.83892822 32.96145996 -69.83892822 32.30145996 -69.83892822 31.62145996 C-69.17892822 31.62145996 -68.51892822 31.62145996 -67.83892822 31.62145996 C-67.83892822 30.96145996 -67.83892822 30.30145996 -67.83892822 29.62145996 C-67.17892822 29.62145996 -66.51892822 29.62145996 -65.83892822 29.62145996 C-65.83892822 28.96145996 -65.83892822 28.30145996 -65.83892822 27.62145996 C-65.17892822 27.62145996 -64.51892822 27.62145996 -63.83892822 27.62145996 C-63.83892822 26.96145996 -63.83892822 26.30145996 -63.83892822 25.62145996 C-63.17892822 25.62145996 -62.51892822 25.62145996 -61.83892822 25.62145996 C-61.83892822 24.96145996 -61.83892822 24.30145996 -61.83892822 23.62145996 C-60.18892822 22.96145996 -58.53892822 22.30145996 -56.83892822 21.62145996 C-56.83892822 20.96145996 -56.83892822 20.30145996 -56.83892822 19.62145996 C-55.84892822 19.62145996 -54.85892822 19.62145996 -53.83892822 19.62145996 C-53.83892822 18.96145996 -53.83892822 18.30145996 -53.83892822 17.62145996 C-53.17892822 17.62145996 -52.51892822 17.62145996 -51.83892822 17.62145996 C-51.83892822 16.96145996 -51.83892822 16.30145996 -51.83892822 15.62145996 C-50.84892822 15.62145996 -49.85892822 15.62145996 -48.83892822 15.62145996 C-48.83892822 14.96145996 -48.83892822 14.30145996 -48.83892822 13.62145996 C-47.51892822 13.62145996 -46.19892822 13.62145996 -44.83892822 13.62145996 C-44.83892822 12.96145996 -44.83892822 12.30145996 -44.83892822 11.62145996 C-43.84892822 11.62145996 -42.85892822 11.62145996 -41.83892822 11.62145996 C-41.83892822 10.96145996 -41.83892822 10.30145996 -41.83892822 9.62145996 C-40.51892822 9.62145996 -39.19892822 9.62145996 -37.83892822 9.62145996 C-37.83892822 8.96145996 -37.83892822 8.30145996 -37.83892822 7.62145996 C-36.51892822 7.62145996 -35.19892822 7.62145996 -33.83892822 7.62145996 C-33.83892822 6.96145996 -33.83892822 6.30145996 -33.83892822 5.62145996 C-22.43491705 0.45284037 -12.36844983 -0.08802796 0 0 Z " fill="#3CD84E" transform="translate(96.83892822265625,-0.6214599609375)"/>
<path d="M0 0 C20.55947039 1.78799498 41.14092117 1.97411508 61.76393104 2.00023746 C64.00795008 2.0032168 66.25196456 2.00732929 68.49598122 2.01174164 C75.5882494 2.02534181 82.68050651 2.03504397 89.7727868 2.03894353 C97.82739239 2.04340273 105.88182648 2.06088269 113.93638009 2.08994412 C120.25154672 2.11190089 126.56666636 2.1216655 132.88187057 2.12298465 C136.61235712 2.12400909 140.34268117 2.12938691 144.07312584 2.14780426 C161.51459006 2.22916008 178.70618474 1.61403482 196.06747723 -0.14945602 C221.75674345 -2.72192672 221.75674345 -2.72192672 230.21386719 0.80004883 C244.12253028 12.97012904 256.69157171 30.94628912 260.57324219 49.01098633 C261.13661695 51.80913234 261.13661695 51.80913234 262.26464844 54.36645508 C265.58653526 66.38266298 265.15273723 83.00050925 259.69824219 94.30786133 C254.51944843 103.00278348 249.23476362 109.03524728 239.21386719 111.80004883 C231.95489138 112.55125003 224.16205517 113.25931357 218.10058594 108.60473633 C212.28998256 103.04676788 207.13002852 97.02839442 202.21386719 90.67504883 C197.34420685 84.47909889 191.54074467 78.02656368 184.21386719 74.80004883 C184.21386719 74.14004883 184.21386719 73.48004883 184.21386719 72.80004883 C183.20324219 72.55254883 182.19261719 72.30504883 181.15136719 72.05004883 C175.61774707 70.66912747 170.11291091 69.17985306 164.60449219 67.70239258 C163.48558594 67.40461914 162.36667969 67.1068457 161.21386719 66.80004883 C160.60381836 66.62747559 159.99376953 66.45490234 159.36523438 66.27709961 C146.23029436 63.36451759 131.4544103 63.62438823 118.02636719 63.55004883 C117.25744141 63.54094482 116.48851562 63.53184082 115.69628906 63.52246094 C110.45162571 63.5508136 105.13433974 63.8531451 100.21386719 65.80004883 C98.14652777 67.97302522 98.14652777 67.97302522 97.21386719 70.80004883 C96.84003906 71.71399414 96.46621094 72.62793945 96.08105469 73.56958008 C93.82937459 80.47532337 92.7877805 86.79501999 92.50854492 93.99658203 C92.35596343 97.8764447 91.97698724 101.50789053 91.15136719 105.30004883 C90.21967206 109.94440789 89.96173587 114.45240114 89.90136719 119.17504883 C89.87514282 120.19308594 89.87514282 120.19308594 89.84838867 121.23168945 C89.85327844 125.60857447 90.32134405 128.46569425 93.21386719 131.80004883 C98.39446313 134.73294492 102.76785024 135.2889276 108.65136719 135.17504883 C109.3998291 135.16562256 110.14829102 135.15619629 110.91943359 135.14648438 C116.27247128 134.99976976 120.50365085 134.53197431 125.21386719 131.80004883 C128.14608864 127.74468856 129.49234252 123.31273812 131.02636719 118.61254883 C134.73457244 107.81394179 138.85790529 98.68943933 149.21386719 92.80004883 C151.77636719 92.14770508 151.77636719 92.14770508 154.21386719 91.80004883 C155.34824219 91.63504883 156.48261719 91.47004883 157.65136719 91.30004883 C164.53658564 91.33961905 172.84118332 96.08678991 178.13183594 100.34301758 C179.21386719 101.80004883 179.21386719 101.80004883 179.21386719 104.80004883 C179.87386719 104.80004883 180.53386719 104.80004883 181.21386719 104.80004883 C193.05505027 120.38055289 192.69376595 142.99293118 193.21386719 161.80004883 C193.25688965 163.33193848 193.25688965 163.33193848 193.30078125 164.89477539 C193.95108632 192.08411282 192.45615844 224.4708179 173.21386719 245.80004883 C164.99988615 252.41523713 157.01357771 252.34099649 146.79199219 251.63208008 C142.62914696 250.94634007 140.45488647 249.35137769 137.90136719 246.17504883 C133.5381671 239.52354 132.14103735 234.31302306 131.77636719 226.42504883 C131.38322777 219.10828744 130.71700457 212.45076849 125.45214844 206.96411133 C123.44957583 205.35103712 121.45693476 204.05401465 119.21386719 202.80004883 C118.32054687 202.29151367 118.32054687 202.29151367 117.40917969 201.77270508 C110.57098949 198.58839763 101.50165546 198.55407488 94.35058594 200.63208008 C91.87974306 201.6678173 91.87974306 201.6678173 91.21386719 204.80004883 C91.10666458 206.4630064 91.05518631 208.1298339 91.03686523 209.79614258 C91.02403 210.81571045 91.01119476 211.83527832 90.99797058 212.88574219 C90.99058365 213.99183838 90.98319672 215.09793457 90.97558594 216.23754883 C90.96347832 217.96146851 90.96347832 217.96146851 90.9511261 219.72021484 C90.93727409 222.16477957 90.92655695 224.60936373 90.91870117 227.05395508 C90.90727746 229.52276383 90.88698207 231.99154981 90.85717773 234.46020508 C89.92019692 261.60469389 89.92019692 261.60469389 100.69189453 285.61743164 C102.6458314 287.13569763 104.12298991 287.37925164 106.56542969 287.72192383 C107.41298828 287.85630859 108.26054687 287.99069336 109.13378906 288.12915039 C110.02646484 288.26804687 110.91914063 288.40694336 111.83886719 288.55004883 C119.71085436 289.95916255 125.89118667 291.40221339 131.21386719 297.80004883 C131.67921875 298.33887695 132.14457031 298.87770508 132.62402344 299.43286133 C136.89756789 305.89388108 136.2386887 315.37691893 135.21386719 322.80004883 C133.05688342 330.19804423 129.10581599 334.99715112 122.39355469 338.84301758 C112.91024289 343.54861526 101.45434062 346.00970397 90.93652344 346.62426758 C89.18345372 346.61990465 89.18345372 346.61990465 88.21386719 347.80004883 C67.97012496 350.81002326 46.94608107 350.17573168 26.53540039 350.1706543 C23.0309592 350.17049154 19.52703967 350.18445464 16.02270508 350.21166992 C-49.91060758 350.71519429 -49.91060758 350.71519429 -64.51269531 336.36645508 C-71.80960123 328.12922624 -73.448343 321.27716273 -73.29003906 310.59692383 C-72.72939348 306.37252456 -71.6356347 303.61142741 -69.78613281 299.80004883 C-69.37363281 298.93379883 -68.96113281 298.06754883 -68.53613281 297.17504883 C-64.42041505 291.58943186 -58.90923346 289.3694028 -52.66113281 286.86254883 C-44.36815967 283.42399899 -41.52208467 279.93065985 -37.78613281 271.80004883 C-31.05769829 247.7870136 -32.47571369 221.27801193 -32.5174818 196.53915405 C-32.52265458 192.49786138 -32.51782131 188.45657637 -32.51470947 184.4152832 C-32.51110852 177.65517505 -32.51577256 170.89511115 -32.52539062 164.13500977 C-32.53633867 156.3508155 -32.53268829 148.56672553 -32.52173781 140.78253365 C-32.5126377 134.03961361 -32.51139084 127.29672477 -32.51661515 120.55380058 C-32.51971088 116.55145429 -32.52020952 112.54915699 -32.51354218 108.54681396 C-32.50772675 104.79706835 -32.51184149 101.04745693 -32.52333069 97.29772568 C-32.52719179 95.28549122 -32.52133282 93.27324528 -32.51507568 91.26101685 C-32.56084275 81.34909605 -32.63611464 70.11634206 -38.78613281 61.80004883 C-42.73348763 57.94601209 -47.36452685 55.45668387 -52.22363281 52.92504883 C-58.85760012 49.40046536 -64.32725643 45.07855067 -68.84863281 39.05004883 C-70.88068387 32.00560516 -70.82526618 25.19239984 -67.72363281 18.48754883 C-62.65551998 9.62899867 -55.45875673 3.94944515 -45.76660156 0.82739258 C-30.74677946 -2.93193426 -15.25064563 -1.34601347 0 0 Z " fill="#FDFEFD" transform="translate(231.7861328125,156.199951171875)"/>
<path d="M0 0 C0.66 0 1.32 0 2 0 C2 140.58 2 281.16 2 426 C1.67 426 1.34 426 1 426 C-0.36138081 408.05093365 -0.1368736 390.0637349 -0.11606562 372.07661617 C-0.11170585 367.34139126 -0.11321143 362.60616752 -0.1139679 357.87094116 C-0.11448966 349.68739302 -0.11137937 341.5038529 -0.10573006 333.32030678 C-0.09756768 321.4885925 -0.094995 309.65688208 -0.09374207 297.82516529 C-0.09155896 278.62424537 -0.08491904 259.42332972 -0.07543945 240.22241211 C-0.06624611 221.58178733 -0.0591747 202.94116371 -0.05493164 184.30053711 C-0.05466892 183.14956157 -0.05440619 181.99858602 -0.05413551 180.81273244 C-0.05283037 175.03803892 -0.05156669 169.2633454 -0.05032361 163.48865187 C-0.03997409 115.6590983 -0.02237603 67.82954936 0 20 C-0.33 20 -0.66 20 -1 20 C-1.10152799 13.2314676 -1.03026944 6.69675136 0 0 Z " fill="#36CE4A" transform="translate(629,75)"/>
<path d="M0 0 C0.33 0 0.66 0 1 0 C1.125 7.625 1.125 7.625 0 11 C-0.09931833 13.51644823 -0.14220575 16.00528431 -0.1386652 18.52189922 C-0.14150742 19.2986359 -0.14434964 20.07537258 -0.14727798 20.87564674 C-0.15565443 23.4998466 -0.1568955 26.12400249 -0.15821838 28.74821472 C-0.16278173 30.63996353 -0.16778141 32.53171132 -0.17318195 34.42345792 C-0.1867984 39.63859846 -0.19419154 44.85373247 -0.20060861 50.06888616 C-0.20859719 55.68648065 -0.22230025 61.30406145 -0.23532104 66.92164612 C-0.25710573 76.66006735 -0.27524292 86.39848994 -0.29092598 96.13692284 C-0.31360649 110.21718732 -0.34175182 124.29743666 -0.37124526 138.37768833 C-0.4189435 161.22012897 -0.46221014 184.06257499 -0.50268555 206.9050293 C-0.54202191 229.09871909 -0.58344115 251.2924034 -0.62768555 273.48608398 C-0.62904808 274.16996701 -0.63041061 274.85385004 -0.63181442 275.5584568 C-0.64549958 282.42617518 -0.65922714 289.29389348 -0.67298577 296.16161172 C-0.7884019 353.77439625 -0.89666034 411.38719261 -1 469 C-1.33 469 -1.66 469 -2 469 C-2.04575473 410.26308726 -2.08101171 351.52617534 -2.10213066 292.78924843 C-2.10462535 285.85844098 -2.10721846 278.92763357 -2.10986328 271.99682617 C-2.11025556 270.96227316 -2.11025556 270.96227316 -2.11065576 269.90682008 C-2.11917985 247.54790717 -2.13420351 225.18900437 -2.15259444 202.83009758 C-2.1719924 179.20401308 -2.18399128 155.57793756 -2.18817699 131.95184475 C-2.19092436 117.79632439 -2.19960893 103.64083303 -2.21583293 89.48532159 C-2.22638605 79.78489985 -2.22960442 70.08449316 -2.22700275 60.3840661 C-2.22571886 54.78331704 -2.22771886 49.18261875 -2.23841095 43.58187866 C-2.24812444 38.45643068 -2.24864725 33.33106773 -2.24179779 28.20561589 C-2.2409509 26.34951268 -2.24350402 24.49340423 -2.24976636 22.63731139 C-2.25777675 20.11695662 -2.25347561 17.59690996 -2.24609566 15.07656002 C-2.25134968 14.35374152 -2.25660371 13.63092302 -2.26201695 12.88620093 C-2.23095188 8.20030214 -1.44836906 4.40594448 0 0 Z " fill="#4ECE59" transform="translate(5,76)"/>
<path d="M0 0 C0.33 0 0.66 0 1 0 C2.92151888 8.52111829 3.28588523 16.69240676 3.25878906 25.40625 C3.26150596 26.82217589 3.26507079 28.23810037 3.26940918 29.65402222 C3.27846575 33.4732795 3.27501336 37.29242771 3.26865101 41.11168671 C3.26354003 45.14558681 3.26829794 49.17947839 3.27142334 53.21337891 C3.27505494 60.00196987 3.27029208 66.79051724 3.26074219 73.57910156 C3.2499295 81.35355551 3.25333374 89.12790394 3.264395 96.90235519 C3.2735758 103.63161475 3.27469927 110.36084315 3.26951766 117.09010696 C3.26644727 121.08425867 3.26584707 125.07836148 3.27259064 129.07250977 C3.29459811 144.23853621 3.17541644 159.34096082 2.10839844 174.4765625 C2.03095524 175.60637543 1.95351204 176.73618835 1.87372208 177.90023804 C1.79114025 178.9291214 1.70855843 179.95800476 1.62347412 181.01806641 C1.55184933 181.91312897 1.48022453 182.80819153 1.40642929 183.7303772 C1 186 1 186 -1 189 C-0.67 167.55 -0.34 146.1 0 124 C0.33 124 0.66 124 1 124 C1.02336949 109.61375482 1.04093259 95.22751259 1.05181217 80.84125233 C1.05703349 74.16133192 1.06411757 67.48142674 1.07543945 60.80151367 C1.08629493 54.3565375 1.09228251 47.91157359 1.09487724 41.46658897 C1.09672668 39.00618992 1.10033808 36.54579156 1.10573006 34.08539772 C1.11297572 30.64261035 1.11398944 27.19987383 1.11352539 23.75708008 C1.11712067 22.73712448 1.12071594 21.71716888 1.12442017 20.66630554 C1.1230455 19.72546112 1.12167084 18.7846167 1.12025452 17.81526184 C1.12117631 17.00131864 1.1220981 16.18737543 1.12304783 15.34876728 C0.99053753 12.819378 0.52742524 10.47421974 0 8 C-0.11678799 5.32321927 -0.0454506 2.68158543 0 0 Z " fill="#76DD88" transform="translate(197,226)"/>
<path d="M0 0 C3.02101088 0.31085327 6.04180204 0.62363234 9.0625 0.9375 C9.91005859 1.02451172 10.75761719 1.11152344 11.63085938 1.20117188 C12.46552734 1.28818359 13.30019531 1.37519531 14.16015625 1.46484375 C14.91949463 1.543396 15.67883301 1.62194824 16.46118164 1.70288086 C18.3706452 1.9263463 20.2737743 2.2050037 22.17184448 2.51048279 C26.06820644 3.00872175 29.8705677 3.14091872 33.78930664 3.12939453 C34.53527603 3.13114685 35.28124542 3.13289917 36.04981995 3.13470459 C38.50328949 3.13908444 40.95668603 3.13619423 43.41015625 3.1328125 C45.14106764 3.13348771 46.87197894 3.13445953 48.60289001 3.13571167 C52.23502503 3.13718433 55.86713543 3.1350519 59.49926758 3.13037109 C64.08811249 3.12473728 68.67689858 3.12800034 73.26574135 3.13382339 C91.53149875 3.15337482 109.7623863 3.15890749 128 2 C128 2.33 128 2.66 128 3 C125.1875 3.46875 125.1875 3.46875 122.375 3.9375 C121.33085937 4.11152344 120.28671875 4.28554688 119.2109375 4.46484375 C118.15132813 4.64144531 117.09171875 4.81804687 116 5 C115.13390106 5.17369614 114.26780212 5.34739227 113.37545776 5.52635193 C109.15151392 6.11906053 105.04106157 6.13158269 100.78173828 6.11352539 C99.87378006 6.11367142 98.96582184 6.11381744 98.03034973 6.1139679 C95.04364594 6.11327391 92.05700533 6.10550563 89.0703125 6.09765625 C86.99380528 6.09579024 84.91729761 6.0943672 82.84078979 6.09336853 C77.38609595 6.08955774 71.9314289 6.07973975 66.47674561 6.06866455 C60.90637576 6.05841949 55.33600156 6.05386428 49.765625 6.04882812 C38.84373825 6.03811617 27.92187136 6.02105704 17 6 C17 5.34 17 4.68 17 4 C16.030625 4.04125 15.06125 4.0825 14.0625 4.125 C9.62255284 4.125 5.20147672 3.4605992 1 2 C0.67 1.34 0.34 0.68 0 0 Z " fill="#6CD680" transform="translate(187,502)"/>
<path d="M0 0 C1.18529297 0.01353516 1.18529297 0.01353516 2.39453125 0.02734375 C3.28205078 0.04474609 3.28205078 0.04474609 4.1875 0.0625 C4.1875 0.3925 4.1875 0.7225 4.1875 1.0625 C-1.82861478 2.38092515 -7.73495924 3.34674415 -13.87890625 3.81640625 C-15.81660175 3.86254402 -15.81660175 3.86254402 -16.8125 5.0625 C-37.16355902 8.10799327 -58.30212696 7.40747056 -78.82055664 7.37817383 C-82.36593219 7.37351671 -85.91096679 7.38057872 -89.45629883 7.39868164 C-127.13299944 7.58967868 -127.13299944 7.58967868 -145.8125 4.0625 C-145.8125 3.7325 -145.8125 3.4025 -145.8125 3.0625 C-144.86117187 3.12308594 -143.90984375 3.18367188 -142.9296875 3.24609375 C-119.5884403 4.66895648 -96.1962854 5.41359765 -72.8125 5.0625 C-71.59369141 5.04461426 -70.37488281 5.02672852 -69.11914062 5.00830078 C-46.17314429 4.61317742 -22.67619945 -0.33845074 0 0 Z " fill="#E2F0E7" transform="translate(336.8125,498.9375)"/>
<path d="M0 0 C0 0.33 0 0.66 0 1 C-5.01264959 1.5547764 -10.02567858 2.10595197 -15.0390625 2.65405273 C-16.73805965 2.84028156 -18.43695653 3.0274279 -20.13574219 3.21557617 C-22.60324531 3.48869119 -25.07111242 3.75830088 -27.5390625 4.02734375 C-28.27613434 4.10967758 -29.01320618 4.19201141 -29.77261353 4.27684021 C-32.18016962 4.53724278 -34.58921993 4.77138247 -37 5 C-37.91804413 5.09479141 -38.83608826 5.18958282 -39.7819519 5.2872467 C-52.26710635 6.39605784 -64.78530281 6.01929877 -77.3046875 5.87890625 C-79.84058166 5.854564 -82.37648068 5.83072261 -84.91238403 5.80735779 C-90.86893065 5.75128116 -96.82541236 5.69021256 -102.78188241 5.62663645 C-109.57284515 5.55443865 -116.36386626 5.48875323 -123.15489936 5.42356598 C-137.10334199 5.28953126 -151.05169347 5.147477 -165 5 C-165 4.67 -165 4.34 -165 4 C-164.44473727 3.99761165 -163.88947454 3.99522329 -163.31738567 3.99276257 C-149.61886278 3.93285193 -135.9205067 3.85667182 -122.2221632 3.76428509 C-115.59693323 3.71988134 -108.9717657 3.68071023 -102.34643555 3.65356445 C-62.67616061 3.512813 -62.67616061 3.512813 -23.13793945 0.63208008 C-15.41533985 -0.16872358 -7.75219235 -0.13326903 0 0 Z " fill="#C3E5BF" transform="translate(456,155)"/>
<path d="M0 0 C1.32 0.33 2.64 0.66 4 1 C3.01 1 2.02 1 1 1 C0.09417005 4.1010732 -0.13149601 6.88382146 -0.14526367 10.10961914 C-0.15164352 11.12911148 -0.15802338 12.14860382 -0.16459656 13.19898987 C-0.16570938 14.29992477 -0.1668222 15.40085968 -0.16796875 16.53515625 C-0.17129715 17.68302109 -0.17462555 18.83088593 -0.17805481 20.01353455 C-0.18312196 22.4521342 -0.1854632 24.89074079 -0.18530273 27.3293457 C-0.18746108 30.99637965 -0.20554019 34.66309856 -0.22460938 38.33007812 C-0.25560897 51.68954028 0.20197735 64.75575499 2 78 C-5.64645136 66.53032296 -3.45950671 48.09192545 -3.39111328 34.99633789 C-3.37486528 31.2816998 -3.39112075 27.56812309 -3.41015625 23.85351562 C-3.40817657 21.48176844 -3.40433861 19.11002192 -3.3984375 16.73828125 C-3.40451019 15.63309647 -3.41058289 14.52791168 -3.4168396 13.38923645 C-3.40738312 12.36013657 -3.39792664 11.33103668 -3.38818359 10.27075195 C-3.38579681 9.37081009 -3.38341003 8.47086823 -3.38095093 7.5436554 C-2.9216364 4.47675678 -1.72978754 2.54424394 0 0 Z " fill="#72D676" transform="translate(325,356)"/>
<path d="M0 0 C0.66 0.66 1.32 1.32 2 2 C2.66 1.67 3.32 1.34 4 1 C3.34 2.98 2.68 4.96 2 7 C1.34 7 0.68 7 0 7 C0 7.66 0 8.32 0 9 C-0.66 9 -1.32 9 -2 9 C-2 9.66 -2 10.32 -2 11 C-2.66 11 -3.32 11 -4 11 C-4 11.66 -4 12.32 -4 13 C-4.66 13 -5.32 13 -6 13 C-6 13.66 -6 14.32 -6 15 C-6.66 15 -7.32 15 -8 15 C-8 15.66 -8 16.32 -8 17 C-8.66 17 -9.32 17 -10 17 C-10 17.66 -10 18.32 -10 19 C-10.66 19 -11.32 19 -12 19 C-12 19.66 -12 20.32 -12 21 C-12.99 20.67 -13.98 20.34 -15 20 C-14.525625 19.443125 -14.05125 18.88625 -13.5625 18.3125 C-11.83653492 16.14545741 -11.83653492 16.14545741 -11.75 13.71875 C-10.69860535 9.90744439 -8.24053149 7.80856191 -5.4375 5.1875 C-4.91736328 4.68541016 -4.39722656 4.18332031 -3.86132812 3.66601562 C-2.5831143 2.43470873 -1.29272853 1.2160593 0 0 Z " fill="#318735" transform="translate(609,586)"/>
<path d="M0 0 C0 0.33 0 0.66 0 1 C-6.01611478 2.31842515 -11.92245924 3.28424415 -18.06640625 3.75390625 C-20.00410175 3.80004402 -20.00410175 3.80004402 -21 5 C-25.04272972 5.53553957 -29.12108731 5.76625124 -33.1875 6.0625 C-34.997948 6.19664307 -34.997948 6.19664307 -36.8449707 6.33349609 C-47.90987463 7.09649269 -58.9152754 7.20174423 -70 7 C-70 6.67 -70 6.34 -70 6 C-68.95328125 5.96261719 -67.9065625 5.92523438 -66.828125 5.88671875 C-48.37380687 5.12169732 -29.98381362 3.13915266 -11.73046875 0.33984375 C-7.78599887 -0.15109885 -3.9689136 -0.13685909 0 0 Z " fill="#CEEDD6" transform="translate(341,499)"/>
<path d="M0 0 C1.084021 0.00523682 2.16804199 0.01047363 3.28491211 0.01586914 C4.45473633 0.0190918 5.62456055 0.02231445 6.82983398 0.02563477 C8.0615332 0.03401367 9.29323242 0.04239258 10.56225586 0.05102539 C12.41560547 0.05779297 12.41560547 0.05779297 14.30639648 0.06469727 C17.37089703 0.07652931 20.43530307 0.09301366 23.49975586 0.11352539 C23.49975586 0.44352539 23.49975586 0.77352539 23.49975586 1.11352539 C16.82077043 3.13259107 10.73201403 3.37701764 3.78100586 3.30883789 C2.68252319 3.306008 1.58404053 3.3031781 0.45227051 3.30026245 C-3.03201514 3.28913025 -6.5160371 3.26403837 -10.00024414 3.23852539 C-12.37263624 3.2284866 -14.7450324 3.21936233 -17.11743164 3.21118164 C-22.91179138 3.18921373 -28.70599891 3.15580586 -34.50024414 3.11352539 C-32.50024414 1.11352539 -32.50024414 1.11352539 -29.62695312 0.90234375 C-28.4288501 0.91918213 -27.23074707 0.93602051 -25.99633789 0.95336914 C-24.69889648 0.96432617 -23.40145508 0.9752832 -22.06469727 0.98657227 C-20.68903572 1.00737343 -19.31338448 1.02886634 -17.93774414 1.05102539 C-15.24893364 1.08728823 -12.56029998 1.11546373 -9.87133789 1.14086914 C-8.67436279 1.15883545 -7.4773877 1.17680176 -6.24414062 1.1953125 C-3.12078628 1.10221492 -3.03597853 0.1378508 0 0 Z " fill="#34D844" transform="translate(340.500244140625,155.886474609375)"/>
<path d="M0 0 C1.25780273 0.0012085 1.25780273 0.0012085 2.54101562 0.00244141 C10.48141845 0.07511918 18.39112595 0.52923737 26.3125 1.0625 C27.53541748 1.14089111 28.75833496 1.21928223 30.01831055 1.30004883 C31.16726807 1.38407959 32.31622559 1.46811035 33.5 1.5546875 C35.03720703 1.66466064 35.03720703 1.66466064 36.60546875 1.77685547 C39.3125 2.1875 39.3125 2.1875 43.3125 4.1875 C34.7325 4.1875 26.1525 4.1875 17.3125 4.1875 C17.3125 3.8575 17.3125 3.5275 17.3125 3.1875 C6.4225 2.8575 -4.4675 2.5275 -15.6875 2.1875 C-15.6875 1.8575 -15.6875 1.5275 -15.6875 1.1875 C-10.41935371 0.31759473 -5.3364344 -0.00547214 0 0 Z " fill="#5FD675" transform="translate(349.6875,218.8125)"/>
<path d="M0 0 C1.67959686 0.0848933 3.36220977 0.1177722 5.04394531 0.11352539 C6.54504852 0.11341209 6.54504852 0.11341209 8.07647705 0.11329651 C9.14952087 0.10813522 10.2225647 0.10297394 11.328125 0.09765625 C12.43226746 0.0962413 13.53640991 0.09482635 14.67401123 0.09336853 C18.19936842 0.08777258 21.72466202 0.07522079 25.25 0.0625 C27.64062408 0.05748448 30.03124916 0.05292166 32.421875 0.04882812 C38.28127168 0.03780447 44.1406313 0.02107033 50 0 C50 0.33 50 0.66 50 1 C36.5277517 2.22224448 23.07874159 2.11438389 9.5625 2.0625 C7.27018327 2.05747335 4.97786547 2.05291251 2.68554688 2.04882812 C-2.87632583 2.03791862 -8.43815777 2.02127351 -14 2 C-9.37672193 -1.08218538 -5.25149737 -1.32160514 0 0 Z " fill="#66D669" transform="translate(370,157)"/>
<path d="M0 0 C0.66 0 1.32 0 2 0 C8 10.2 8 10.2 8 16 C8.66 16 9.32 16 10 16 C10 17.98 10 19.96 10 22 C10.66 22 11.32 22 12 22 C11.67 23.32 11.34 24.64 11 26 C11 25.34 11 24.68 11 24 C10.34 24 9.68 24 9 24 C7.86684609 21.5034256 6.74343421 19.00316228 5.625 16.5 C5.30789063 15.80390625 4.99078125 15.1078125 4.6640625 14.390625 C2.55790626 9.65177346 1.12893429 5.06309922 0 0 Z " fill="#407F42" transform="translate(617,47)"/>
<path d="M0 0 C1.32 0.66 2.64 1.32 4 2 C4.17835515 6.54805635 3.99785435 9.8794254 2 14 C1.67 14 1.34 14 1 14 C0.67 11.69 0.34 9.38 0 7 C-0.33 8.98 -0.66 10.96 -1 13 C-1.33 13 -1.66 13 -2 13 C-2.19294408 8.17639811 -1.75747614 4.50353262 0 0 Z M0 14 C0.66 14.33 1.32 14.66 2 15 C1.34 17.97 0.68 20.94 0 24 C-0.33 24 -0.66 24 -1 24 C-1.125 17.375 -1.125 17.375 0 14 Z " fill="#2AA237" transform="translate(5,70)"/>
<path d="M0 0 C4.71403788 0.47939368 8.66579301 0.96834048 13 3 C13 3.66 13 4.32 13 5 C13.598125 5.144375 14.19625 5.28875 14.8125 5.4375 C16.56150404 5.8872439 18.28677023 6.42892341 20 7 C21.1875 9.0625 21.1875 9.0625 22 11 C18.96718632 10.34968323 16.43497916 9.33488229 13.671875 7.93359375 C12.87265625 7.53076172 12.0734375 7.12792969 11.25 6.71289062 C10.425 6.29201172 9.6 5.87113281 8.75 5.4375 C7.90953125 5.01275391 7.0690625 4.58800781 6.203125 4.15039062 C4.13356328 3.10385089 2.06596521 2.05361686 0 1 C0 0.67 0 0.34 0 0 Z " fill="#469554" transform="translate(563,4)"/>
<path d="M0 0 C0.33 0 0.66 0 1 0 C1.55353075 16.70842825 1.55353075 16.70842825 -2 25 C-2.66 25 -3.32 25 -4 25 C-3.24595285 16.55467195 -1.62171958 8.31258777 0 0 Z " fill="#62D76B" transform="translate(423,352)"/>
<path d="M0 0 C0 0.66 0 1.32 0 2 C-0.845625 2.20625 -1.69125 2.4125 -2.5625 2.625 C-5.70309492 3.88123797 -7.08566734 4.79537552 -9.5 7 C-12.47074444 9.7127065 -15.03504083 11.03293679 -19 12 C-14.22205599 5.49824874 -8.42800988 0 0 0 Z " fill="#DEF0CF" transform="translate(187,158)"/>
<path d="M0 0 C1.30609191 3.91827573 0.34814961 5.25261472 -1.25 9 C-1.68828125 10.051875 -2.1265625 11.10375 -2.578125 12.1875 C-3.85960998 14.72230545 -4.78449869 16.27040498 -7 18 C-9.6875 18.6875 -9.6875 18.6875 -12 19 C-12 18.34 -12 17.68 -12 17 C-9 15 -9 15 -6 15 C-5.814375 14.1028125 -5.814375 14.1028125 -5.625 13.1875 C-5 11 -5 11 -3 8 C-3.020625 6.989375 -3.04125 5.97875 -3.0625 4.9375 C-3.0315625 3.4834375 -3.0315625 3.4834375 -3 2 C-2.01 1.34 -1.02 0.68 0 0 Z " fill="#55D65B" transform="translate(363,272)"/>
<path d="M0 0 C3.02101088 0.31085327 6.04180204 0.62363234 9.0625 0.9375 C9.91005859 1.02451172 10.75761719 1.11152344 11.63085938 1.20117188 C16.43912966 1.70242013 21.21949483 2.28000533 26 3 C26 3.33 26 3.66 26 4 C8.55351682 4.3853211 8.55351682 4.3853211 1 2 C0.67 1.34 0.34 0.68 0 0 Z " fill="#7EDB97" transform="translate(187,502)"/>
<path d="M0 0 C0.66 0.33 1.32 0.66 2 1 C2 1.66 2 2.32 2 3 C2.57234375 3.23460937 3.1446875 3.46921875 3.734375 3.7109375 C6.51684301 5.29406585 8.17070214 7.1991525 10.25 9.625 C10.95640625 10.44226563 11.6628125 11.25953125 12.390625 12.1015625 C12.92171875 12.72804688 13.4528125 13.35453125 14 14 C11 14 11 14 9 13 C9 12.34 9 11.68 9 11 C8.34 11 7.68 11 7 11 C7 10.34 7 9.68 7 9 C6.34 9 5.68 9 5 9 C5 8.34 5 7.68 5 7 C4.34 7 3.68 7 3 7 C3 6.34 3 5.68 3 5 C2.34 5 1.68 5 1 5 C1 4.34 1 3.68 1 3 C0.34 3 -0.32 3 -1 3 C-0.67 2.01 -0.34 1.02 0 0 Z " fill="#356E34" transform="translate(28,594)"/>
<path d="M0 0 C0.66 0.33 1.32 0.66 2 1 C1.01 1.33 0.02 1.66 -1 2 C-1.268125 2.598125 -1.53625 3.19625 -1.8125 3.8125 C-3.52522346 6.96751691 -5.94637964 8.21872145 -9 10 C-9.66 10 -10.32 10 -11 10 C-10.61256127 7.54447615 -10.30405354 6.28924068 -8.4765625 4.55078125 C-7.86554688 4.14214844 -7.25453125 3.73351562 -6.625 3.3125 C-6.01914063 2.89613281 -5.41328125 2.47976563 -4.7890625 2.05078125 C-3 1 -3 1 0 0 Z " fill="#E0F1D4" transform="translate(175,445)"/>
<path d="M0 0 C0.66 0 1.32 0 2 0 C2.12058347 6.41772028 2.00784529 12.65057468 1 19 C0.34 19.33 -0.32 19.66 -1 20 C-1.10152799 13.2314676 -1.03026944 6.69675136 0 0 Z " fill="#30A037" transform="translate(629,75)"/>
<path d="M0 0 C1.32 0.33 2.64 0.66 4 1 C0.04 4.96 -3.92 8.92 -8 13 C-8 9.30581799 -6.71820705 7.22163822 -5 4 C-4.34 4 -3.68 4 -3 4 C-3 3.34 -3 2.68 -3 2 C-2.01 1.34 -1.02 0.68 0 0 Z " fill="#499B52" transform="translate(38,21)"/>
<path d="M0 0 C2.97287482 0.96791273 5.87822031 1.94741332 8.75 3.1875 C9.4925 3.455625 10.235 3.72375 11 4 C11.66 3.67 12.32 3.34 13 3 C13 3.66 13 4.32 13 5 C13.99 5 14.98 5 16 5 C15.67 5.66 15.34 6.32 15 7 C14.34 6.67 13.68 6.34 13 6 C13 6.66 13 7.32 13 8 C10.06984666 7.3547078 7.51243525 6.4319105 4.8125 5.125 C4.11769531 4.79757813 3.42289063 4.47015625 2.70703125 4.1328125 C1 3 1 3 0 0 Z " fill="#31B03D" transform="translate(573,10)"/>
<path d="M0 0 C0.33 0.99 0.66 1.98 1 3 C0.01 3.33 -0.98 3.66 -2 4 C-1.67 5.98 -1.34 7.96 -1 10 C-1.66 10 -2.32 10 -3 10 C-3 10.66 -3 11.32 -3 12 C-3.66 12 -4.32 12 -5 12 C-5 12.66 -5 13.32 -5 14 C-5.99 13.67 -6.98 13.34 -8 13 C-7.525625 12.443125 -7.05125 11.88625 -6.5625 11.3125 C-4.84336341 9.10769304 -4.84336341 9.10769304 -4.5625 6.5 C-3.84932258 3.33032256 -2.40936374 2.0984781 0 0 Z " fill="#278D30" transform="translate(602,593)"/>
<path d="M0 0 C1 2 1 2 0.625 4.875 C-1.47765273 8.91856293 -3.63539918 9.69569697 -7.7109375 11.43359375 C-10.22889015 12.05663664 -11.57926368 11.84559967 -14 11 C-13.11248047 10.56300781 -13.11248047 10.56300781 -12.20703125 10.1171875 C-6.90806011 7.36829219 -3.49441987 4.84709854 0 0 Z " fill="#67D674" transform="translate(488,255)"/>
<path d="M0 0 C0.33 0.66 0.66 1.32 1 2 C1.66 2 2.32 2 3 2 C3.33 4.31 3.66 6.62 4 9 C4.66 9 5.32 9 6 9 C7.32 12.63 8.64 16.26 10 20 C9.34 20 8.68 20 8 20 C6.9901527 18.08850332 5.99245505 16.17058431 5 14.25 C4.443125 13.18265625 3.88625 12.1153125 3.3125 11.015625 C2 8 2 8 2 4 C1.34 4 0.68 4 0 4 C0 2.68 0 1.36 0 0 Z " fill="#285C28" transform="translate(7,561)"/>
<path d="M0 0 C0.94314127 3.41610225 1.08065117 6.45134864 1 10 C0.360625 10.2475 -0.27875 10.495 -0.9375 10.75 C-3.18741541 11.81562433 -3.18741541 11.81562433 -3.75 14.125 C-3.8325 14.74375 -3.915 15.3625 -4 16 C-4.66 16 -5.32 16 -6 16 C-4.27933894 10.55123997 -2.15294651 5.28830549 0 0 Z " fill="#6ED675" transform="translate(418,377)"/>
<path d="M0 0 C0 0.66 0 1.32 0 2 C0.66 2 1.32 2 2 2 C2 2.66 2 3.32 2 4 C1.01 4 0.02 4 -1 4 C-1 4.66 -1 5.32 -1 6 C-3.64738916 7.4606285 -4.89448334 8 -8 8 C-8 7.34 -8 6.68 -8 6 C-6.68 5.67 -5.36 5.34 -4 5 C-4.33 4.01 -4.66 3.02 -5 2 C-2 0 -2 0 0 0 Z " fill="#3AA243" transform="translate(587,609)"/>
<path d="M0 0 C3.465 1.98 3.465 1.98 7 4 C7 4.66 7 5.32 7 6 C7.66 6 8.32 6 9 6 C9 6.66 9 7.32 9 8 C9.66 8 10.32 8 11 8 C11 8.66 11 9.32 11 10 C11.66 10.33 12.32 10.66 13 11 C9.37159027 10.38416899 7.13879117 8.86239708 4.25 6.625 C3.45078125 6.01914062 2.6515625 5.41328125 1.828125 4.7890625 C0.92320312 3.90347656 0.92320312 3.90347656 0 3 C0 2.01 0 1.02 0 0 Z " fill="#4F9B56" transform="translate(590,17)"/>
<path d="M0 0 C0.33 0 0.66 0 1 0 C1.03738281 0.94101562 1.07476562 1.88203125 1.11328125 2.8515625 C1.21189453 4.71941406 1.21189453 4.71941406 1.3125 6.625 C1.37050781 7.85476563 1.42851562 9.08453125 1.48828125 10.3515625 C2.02146955 14.153073 3.1726374 16.6588169 5 20 C5 20.66 5 21.32 5 22 C3.0625 21.3125 3.0625 21.3125 1 20 C-0.25523406 15.7949659 -0.11658597 11.53517998 -0.0625 7.1875 C-0.05798828 6.49462891 -0.05347656 5.80175781 -0.04882812 5.08789062 C-0.03713156 3.39188932 -0.01919924 1.69593297 0 0 Z " fill="#7AD787" transform="translate(158,465)"/>
<path d="M0 0 C3.50755794 3.50755794 4.125 7.5605227 4.125 12.375 C4.08375 13.57125 4.0425 14.7675 4 16 C0.98656045 12.67148232 0.55332456 10.18117187 0.3125 5.75 C0.24675781 4.67234375 0.18101562 3.5946875 0.11328125 2.484375 C0.07589844 1.66453125 0.03851563 0.8446875 0 0 Z " fill="#7CD98E" transform="translate(360,367)"/>
<path d="M0 0 C0.96500434 2.57726769 1.12398584 3.68133464 0.109375 6.2890625 C-0.33921875 7.05992187 -0.7878125 7.83078125 -1.25 8.625 C-1.90742188 9.78902344 -1.90742188 9.78902344 -2.578125 10.9765625 C-4 13 -4 13 -7 15 C-7 14.01 -7 13.02 -7 12 C-6.34 12 -5.68 12 -5 12 C-5 10.68 -5 9.36 -5 8 C-4.34 8 -3.68 8 -3 8 C-1.92474806 5.34771188 -0.90543849 2.71631546 0 0 Z " fill="#69D769" transform="translate(194,424)"/>
<path d="M0 0 C3.95680442 2.08831345 6.58783295 4.19619811 9 8 C8.75 10.3125 8.75 10.3125 8 12 C7.34 11.34 6.68 10.68 6 10 C6 8.68 6 7.36 6 6 C4.68 5.67 3.36 5.34 2 5 C2 4.01 2 3.02 2 2 C1.34 2 0.68 2 0 2 C0 1.34 0 0.68 0 0 Z " fill="#5CD074" transform="translate(187,213)"/>
<path d="M0 0 C4.55092503 2.21396353 6.02632729 4.39476367 8 9 C8.391875 9.78375 8.78375 10.5675 9.1875 11.375 C9.455625 11.91125 9.72375 12.4475 10 13 C9.34 13 8.68 13 8 13 C8 12.34 8 11.68 8 11 C7.34 11 6.68 11 6 11 C5.34 9.02 4.68 7.04 4 5 C3.34 5 2.68 5 2 5 C2 4.34 2 3.68 2 3 C1.34 3 0.68 3 0 3 C0 2.01 0 1.02 0 0 Z " fill="#1F461E" transform="translate(17,582)"/>
<path d="M0 0 C2.62901288 1.52206009 4.84365964 2.84365964 7 5 C7.125 8.125 7.125 8.125 7 11 C4.35247996 8.42215154 2.05567935 6.08351902 0 3 C0 2.01 0 1.02 0 0 Z " fill="#4FD267" transform="translate(353,360)"/>
<path d="M0 0 C0.66 0 1.32 0 2 0 C6.06153846 6.27692308 6.06153846 6.27692308 5.75 9.9375 C5.5025 10.618125 5.255 11.29875 5 12 C1.66226291 8.35883227 1.02135098 4.71392758 0 0 Z " fill="#316434" transform="translate(617,47)"/>
<path d="M0 0 C2.31 0.33 4.62 0.66 7 1 C7.66 2.65 8.32 4.3 9 6 C8.01 6 7.02 6 6 6 C6 5.34 6 4.68 6 4 C5.01 4 4.02 4 3 4 C3 3.34 3 2.68 3 2 C2.01 2 1.02 2 0 2 C0 1.34 0 0.68 0 0 Z " fill="#379038" transform="translate(45,611)"/>
<path d="M0 0 C3.58697577 -0.19927643 6.00095064 -0.0683099 9 2 C10.25 4.125 10.25 4.125 11 6 C6.80639551 5.32902328 3.59665648 3.1441606 0 1 C0 0.67 0 0.34 0 0 Z " fill="#5AA063" transform="translate(574,9)"/>
<path d="M0 0 C0.33 0 0.66 0 1 0 C1.21755666 5.4389165 1.10428384 9.87080814 -1 15 C-1.33 15 -1.66 15 -2 15 C-2.19392201 9.47322267 -1.7479503 5.24385089 0 0 Z " fill="#8DE496" transform="translate(326,233)"/>
<path d="M0 0 C0.33 0 0.66 0 1 0 C1.04898438 0.79664063 1.09796875 1.59328125 1.1484375 2.4140625 C1.70029395 10.38157314 1.70029395 10.38157314 4 18 C3.34 18 2.68 18 2 18 C2 17.01 2 16.02 2 15 C1.34 15 0.68 15 0 15 C0 10.05 0 5.1 0 0 Z " fill="#59CE67" transform="translate(161,180)"/>
<path d="M0 0 C0.99 0.33 1.98 0.66 3 1 C3 3.64 3 6.28 3 9 C2.01 8.67 1.02 8.34 0 8 C0 5.36 0 2.72 0 0 Z " fill="#42A349" transform="translate(5,551)"/>
<path d="M0 0 C0 3 0 3 -1 5 C-3.8125 6.75 -3.8125 6.75 -7 8 C-9.19921875 7.078125 -9.19921875 7.078125 -11 6 C-10.28972656 5.65066406 -9.57945312 5.30132812 -8.84765625 4.94140625 C-7.92855469 4.48636719 -7.00945312 4.03132813 -6.0625 3.5625 C-4.68771484 2.88380859 -4.68771484 2.88380859 -3.28515625 2.19140625 C-1.09471096 1.19474606 -1.09471096 1.19474606 0 0 Z " fill="#E0EDD6" transform="translate(188,438)"/>
<path d="M0 0 C0.66 0.33 1.32 0.66 2 1 C1 3 1 3 -2 5 C-2.66 5.66 -3.32 6.32 -4 7 C-6.625 7.625 -6.625 7.625 -9 8 C-9 7.34 -9 6.68 -9 6 C-8.34 6 -7.68 6 -7 6 C-7 5.34 -7 4.68 -7 4 C-6.01 4 -5.02 4 -4 4 C-4 3.34 -4 2.68 -4 2 C-2.68 2 -1.36 2 0 2 C0 1.34 0 0.68 0 0 Z " fill="#346B38" transform="translate(52,11)"/>
<path d="M0 0 C1.15224028 0.92961422 2.29659176 1.8690125 3.4375 2.8125 C4.07558594 3.33457031 4.71367187 3.85664063 5.37109375 4.39453125 C7 6 7 6 8 9 C7.01 9 6.02 9 5 9 C5 8.01 5 7.02 5 6 C3.68 5.67 2.36 5.34 1 5 C0.67 3.35 0.34 1.7 0 0 Z " fill="#5CCE71" transform="translate(426,238)"/>
<path d="M0 0 C0.33 0 0.66 0 1 0 C1 1.65 1 3.3 1 5 C0.34 5 -0.32 5 -1 5 C-1 6.98 -1 8.96 -1 11 C-1.66 11 -2.32 11 -3 11 C-3.93423645 7.98968256 -4.04449911 7.13349732 -3 4 C-2.34 3.67 -1.68 3.34 -1 3 C-0.67 2.01 -0.34 1.02 0 0 Z " fill="#205B23" transform="translate(628,554)"/>
<path d="M0 0 C0.66 0.33 1.32 0.66 2 1 C1.319375 1.804375 1.319375 1.804375 0.625 2.625 C-1.21688312 5.31698302 -2.07971933 7.88520388 -3 11 C-4.32342458 7.02972626 -3.36639254 4.88343142 -2 1 C-1.34 0.67 -0.68 0.34 0 0 Z " fill="#62DD6A" transform="translate(163,452)"/>
<path d="M0 0 C3.63 0 7.26 0 11 0 C11 0.99 11 1.98 11 3 C5.71910976 3.30466674 4.422832 3.317124 0 0 Z " fill="#47D062" transform="translate(381,409)"/>
<path d="M0 0 C0.33 0 0.66 0 1 0 C1.25 7.625 1.25 7.625 -1 11 C-2.60080151 6.99799622 -1.29279692 3.95443764 0 0 Z " fill="#43C34B" transform="translate(5,76)"/>
<path d="M0 0 C1.485 0.99 1.485 0.99 3 2 C3 2.66 3 3.32 3 4 C4.65 4 6.3 4 8 4 C8.33 4.99 8.66 5.98 9 7 C2.25 5.25 2.25 5.25 0 3 C0 2.01 0 1.02 0 0 Z " fill="#52D45C" transform="translate(323,284)"/>
<path d="M0 0 C2.475 0.495 2.475 0.495 5 1 C5 1.66 5 2.32 5 3 C6.32 3.66 7.64 4.32 9 5 C7.35 5.33 5.7 5.66 4 6 C3.67 4.68 3.34 3.36 3 2 C2.01 2 1.02 2 0 2 C0 1.34 0 0.68 0 0 Z " fill="#61D378" transform="translate(411,228)"/>
<path d="M0 0 C4.455 2.97 4.455 2.97 9 6 C4.85526316 7.38157895 4.85526316 7.38157895 2 6 C0.75 2.9375 0.75 2.9375 0 0 Z " fill="#60D275" transform="translate(167,200)"/>
<path d="M0 0 C0.99 0.33 1.98 0.66 3 1 C2.67 2.65 2.34 4.3 2 6 C0.68 5.67 -0.64 5.34 -2 5 C-1.34 3.35 -0.68 1.7 0 0 Z " fill="#39D244" transform="translate(14,55)"/>
<path d="M0 0 C0.33 0 0.66 0 1 0 C1.21278058 4.46839215 0.59138085 7.82262526 -1 12 C-1.66 10.68 -2.32 9.36 -3 8 C-2.34 7.67 -1.68 7.34 -1 7 C-1.20625 6.401875 -1.4125 5.80375 -1.625 5.1875 C-2 3 -2 3 0 0 Z " fill="#4DD858" transform="translate(366,260)"/>
<path d="M0 0 C1.11375 0.1546875 1.11375 0.1546875 2.25 0.3125 C-0.27956528 3.4041909 -2.97454612 4.22181332 -6.75 5.3125 C-3.42692308 0.38942308 -3.42692308 0.38942308 0 0 Z " fill="#EBF8E0" transform="translate(174.75,164.6875)"/>
<path d="M0 0 C3.91402949 1.26941497 5.79072873 2.51167694 8 6 C7.01 7.485 7.01 7.485 6 9 C5.9175 8.21625 5.835 7.4325 5.75 6.625 C5.28474077 3.85955198 5.28474077 3.85955198 3 2.8125 C2.34 2.544375 1.68 2.27625 1 2 C0.67 1.34 0.34 0.68 0 0 Z " fill="#35CD40" transform="translate(593,23)"/>
<path d="M0 0 C2.64 1.98 5.28 3.96 8 6 C5.3333581 7.33332095 3.83319697 6.67102033 1 6 C0.67 4.02 0.34 2.04 0 0 Z " fill="#60D47D" transform="translate(167,492)"/>
<path d="M0 0 C1.21724428 3.95604392 1.89679663 8.20640675 0 12 C-0.66 12 -1.32 12 -2 12 C-1.85831863 10.56208484 -1.71148957 9.1246763 -1.5625 7.6875 C-1.48128906 6.88699219 -1.40007812 6.08648437 -1.31640625 5.26171875 C-1 3 -1 3 0 0 Z " fill="#78DD7C" transform="translate(421,365)"/>
</svg>
